<svg width="33" height="48" viewBox="0 0 33 48" fill="none" xmlns="http://www.w3.org/2000/svg">
<path d="M8.63757 38.368C9.19167 36.9827 10.2347 35.7156 11.6525 35.2634C12.02 35.1366 12.4111 35.0934 12.7974 35.1371C14.1297 35.3163 14.9486 36.8442 14.8019 38.1806C14.4393 41.4848 9.87207 46.4717 7.91642 47.4414C7.0323 46.3454 8.08754 39.7492 8.63757 38.368Z" fill="#FEDB8F"/>
<path d="M2.15174 32.3625C2.35269 31.7933 2.67558 31.2748 3.09783 30.8434C3.52009 30.412 4.03151 30.0781 4.59631 29.865C4.89081 29.7646 5.20368 29.7299 5.51302 29.7631C6.58455 29.9098 7.24458 31.1361 7.14273 32.2077C6.84938 34.8641 3.17846 38.8773 1.60579 39.6554C0.860201 38.7795 1.70358 33.4748 2.15174 32.3625Z" fill="#FEDB8F"/>
<path d="M19.2347 40.0221C19.3823 39.6025 19.6195 39.22 19.9297 38.9013C20.24 38.5826 20.616 38.3352 21.0315 38.1765C21.2485 38.1014 21.4797 38.0763 21.7078 38.1031C22.5227 38.2091 22.9872 39.1176 22.9016 39.9121C22.6857 41.8759 19.9681 44.842 18.8273 45.4205C18.2814 44.7687 18.9088 40.8451 19.2347 40.0221Z" fill="#FEDB8F"/>
<path d="M24.568 36.176C29.7831 29.8079 33.4825 14.5009 32.8144 6.29938C32.6921 4.77968 32.1136 2.88107 30.598 2.75477C30.0383 2.75279 29.4874 2.89298 28.9968 3.16219C18.7394 7.92676 10.479 16.1395 5.65527 26.3692L24.568 36.176Z" fill="#B3C1F4"/>
<path d="M24.0345 34.8071L4.16016 24.5032L4.40869 23.9736C9.31128 13.6302 17.6682 5.32075 28.0395 0.477248C28.6265 0.153475 29.2881 -0.0108756 29.9584 0.000558356C31.4985 0.130935 32.5334 1.66286 32.733 4.10335C33.4053 12.3293 29.6651 27.9338 24.3522 34.4241L24.0345 34.8071ZM5.76949 23.9613L23.6963 33.2629C28.675 26.7441 32.1341 12.0482 31.4985 4.20928C31.4578 3.73259 31.197 1.35729 29.8403 1.22691C29.3852 1.23949 28.9402 1.36403 28.5447 1.58952C18.6198 6.2256 10.5822 14.1209 5.76949 23.9613Z" fill="#535354"/>
<path d="M17.8207 26.3448C19.8661 26.3448 21.5242 24.6867 21.5242 22.6413C21.5242 20.5959 19.8661 18.9378 17.8207 18.9378C15.7753 18.9378 14.1172 20.5959 14.1172 22.6413C14.1172 24.6867 15.7753 26.3448 17.8207 26.3448Z" fill="white"/>
<path d="M17.8205 26.9559C16.9672 26.9559 16.133 26.7029 15.4234 26.2288C14.7139 25.7547 14.1609 25.0808 13.8343 24.2924C13.5077 23.504 13.4223 22.6365 13.5888 21.7995C13.7552 20.9626 14.1662 20.1938 14.7696 19.5904C15.373 18.9869 16.1418 18.576 16.9788 18.4095C17.8157 18.2431 18.6833 18.3285 19.4717 18.6551C20.2601 18.9816 20.9339 19.5347 21.408 20.2442C21.8821 20.9537 22.1352 21.7879 22.1352 22.6413C22.1341 23.7853 21.6792 24.8821 20.8702 25.691C20.0613 26.4999 18.9645 26.9549 17.8205 26.9559ZM17.8205 19.5489C17.2089 19.5489 16.611 19.7303 16.1025 20.0701C15.5939 20.4099 15.1976 20.8928 14.9635 21.4579C14.7295 22.0229 14.6682 22.6447 14.7876 23.2446C14.9069 23.8444 15.2014 24.3954 15.6339 24.8279C16.0664 25.2604 16.6174 25.5549 17.2172 25.6742C17.8171 25.7936 18.4389 25.7323 19.0039 25.4983C19.569 25.2642 20.0519 24.8679 20.3917 24.3593C20.7315 23.8508 20.9129 23.2529 20.9129 22.6413C20.9097 21.8229 20.5826 21.039 20.0031 20.4611C19.4236 19.8832 18.6389 19.5581 17.8205 19.5571V19.5489Z" fill="#535354"/>
<path d="M23.7323 14.9572C25.3007 14.9572 26.5721 13.6858 26.5721 12.1174C26.5721 10.5491 25.3007 9.27768 23.7323 9.27768C22.164 9.27768 20.8926 10.5491 20.8926 12.1174C20.8926 13.6858 22.164 14.9572 23.7323 14.9572Z" fill="white"/>
<path d="M23.7331 15.5683C23.0506 15.5683 22.3834 15.366 21.8159 14.9868C21.2484 14.6076 20.8061 14.0686 20.5449 13.438C20.2837 12.8075 20.2154 12.1136 20.3485 11.4442C20.4817 10.7748 20.8104 10.1599 21.293 9.67728C21.7756 9.19466 22.3905 8.866 23.0599 8.73284C23.7293 8.59969 24.4232 8.66803 25.0537 8.92922C25.6843 9.19041 26.2233 9.63272 26.6025 10.2002C26.9817 10.7677 27.184 11.4349 27.184 12.1174C27.184 13.0327 26.8205 13.9104 26.1733 14.5576C25.5261 15.2048 24.6484 15.5683 23.7331 15.5683ZM23.7331 9.89289C23.2922 9.89289 22.8611 10.0237 22.4946 10.2688C22.128 10.5138 21.8423 10.8621 21.6738 11.2696C21.5052 11.6771 21.4613 12.1254 21.5476 12.5578C21.634 12.9902 21.8466 13.3873 22.1587 13.6988C22.4708 14.0104 22.8683 14.2223 23.3009 14.3078C23.7334 14.3933 24.1817 14.3486 24.5888 14.1793C24.996 14.01 25.3438 13.7237 25.5882 13.3567C25.8325 12.9897 25.9626 12.5584 25.9618 12.1174C25.9607 11.5271 25.7254 10.9613 25.3076 10.5442C24.8897 10.1271 24.3235 9.89289 23.7331 9.89289Z" fill="#535354"/>
<path d="M7.05284 46.4472L6.74319 46.0643C5.60647 44.6505 6.86135 37.6713 7.37878 36.3797C8.06733 34.6522 9.30591 33.3892 10.7767 32.9207C11.2299 32.7676 11.7112 32.7161 12.1864 32.7699C13.918 33.0062 14.8917 34.8845 14.7165 36.4897C14.3091 39.9895 9.63593 45.1679 7.49286 46.2313L7.05284 46.4472ZM8.51143 36.8157C7.9777 38.152 7.28915 43.0371 7.5336 44.7564C9.57074 43.3019 13.2009 39.0728 13.4983 36.3349C13.6124 35.3245 13.0013 34.0941 12.0235 33.9637C11.7275 33.9321 11.4283 33.9668 11.1475 34.0655C10.0271 34.4241 9.06553 35.4263 8.51143 36.8157Z" fill="#535354"/>
<path d="M0.705082 38.6491L0.403585 38.2661C-0.598685 37.0438 0.538036 31.238 0.892498 30.3539C1.1233 29.7021 1.4943 29.1089 1.97933 28.6161C2.46437 28.1233 3.05162 27.743 3.69967 27.5019C4.08082 27.3732 4.48591 27.3315 4.88528 27.3797C6.34795 27.5752 7.17095 29.152 7.02428 30.5006C6.71056 33.3525 2.89297 37.5653 1.14918 38.4291L0.705082 38.6491ZM4.57156 28.5816C4.39984 28.5848 4.22957 28.6137 4.06636 28.6671C3.59269 28.8569 3.16551 29.1466 2.81396 29.5164C2.4624 29.8862 2.19474 30.3275 2.02922 30.8102C1.62587 31.8451 1.09621 35.4467 1.21844 36.9338C2.86852 35.6871 5.56976 32.4521 5.80199 30.3661C5.88348 29.6083 5.43938 28.6875 4.71416 28.5897C4.66695 28.583 4.61924 28.5802 4.57156 28.5816Z" fill="#535354"/>
<path d="M17.943 44.4101L17.6375 44.0271C16.8471 43.0452 17.6986 38.7306 17.9756 38.0217C18.1533 37.517 18.4405 37.058 18.8167 36.6776C19.1929 36.2972 19.6487 36.0048 20.1513 35.8216C20.4547 35.7171 20.7778 35.6823 21.0965 35.7197C22.2699 35.8786 22.934 37.1335 22.8159 38.205C22.5714 40.397 19.7317 43.5016 18.3831 44.1901L17.943 44.4101ZM20.848 36.9257C20.7371 36.9285 20.6273 36.9477 20.5221 36.9827C20.1931 37.1143 19.8966 37.3157 19.6532 37.5732C19.4098 37.8307 19.2252 38.138 19.1124 38.4739C18.74 39.8258 18.5401 41.2194 18.5175 42.6215C19.7194 41.607 21.4469 39.4436 21.5977 38.0706C21.6506 37.5939 21.3736 36.9909 20.9336 36.9338L20.848 36.9257Z" fill="#535354"/>
</svg>
