<svg width="39" height="52" viewBox="0 0 39 52" fill="none" xmlns="http://www.w3.org/2000/svg">
<path d="M1.51562 8.55094C3.04448 8.55094 4.36978 6.81853 4.40443 5.78774C4.73792 7.16501 5.7687 8.5726 7.22393 8.48165C5.95061 9.12264 4.54302 9.92821 4.21819 11.3141C3.70713 10.2184 2.80194 9.0187 1.51562 8.55094Z" fill="#FCAA90"/>
<path d="M8.94255 4.06399C10.4671 4.06399 11.7967 2.33158 11.8314 1.30079C12.1648 2.67806 13.1913 4.08565 14.6509 3.99469C13.3775 4.63569 11.9699 5.44126 11.6191 6.82719C11.1124 5.73144 10.2072 4.52741 8.9209 4.06399" fill="#FCAA90"/>
<path d="M33.0179 27H9.19724C6.32689 27 4 29.3269 4 32.1972V46.0522C4 48.9226 6.32689 51.2495 9.19724 51.2495H33.0179C35.8883 51.2495 38.2152 48.9226 38.2152 46.0522V32.1972C38.2152 29.3269 35.8883 27 33.0179 27Z" fill="#A1C5D1"/>
<path d="M31.2701 50.4234H7.44944C5.90319 50.4211 4.4206 49.8074 3.3252 48.716C2.22981 47.6247 1.61054 46.1444 1.60254 44.5982V30.7388C1.60369 29.1885 2.22007 27.702 3.31632 26.6057C4.41258 25.5095 5.8991 24.8931 7.44944 24.8919H31.2701C32.8205 24.8931 34.307 25.5095 35.4033 26.6057C36.4995 27.702 37.1159 29.1885 37.117 30.7388V44.5982C37.1102 46.1447 36.4913 47.6257 35.3956 48.7173C34.3 49.8089 32.8167 50.4223 31.2701 50.4234ZM7.44944 26.1696C6.85058 26.1702 6.25771 26.2889 5.70482 26.519C5.15192 26.7491 4.64986 27.086 4.22741 27.5105C3.80495 27.9349 3.47041 28.4386 3.24295 28.9926C3.01548 29.5466 2.89957 30.14 2.90185 30.7388V44.5982C2.903 45.8039 3.38248 46.9599 4.23507 47.8125C5.08766 48.6651 6.2437 49.1446 7.44944 49.1458H31.2701C32.4759 49.1446 33.6319 48.6651 34.4845 47.8125C35.3371 46.9599 35.8166 45.8039 35.8177 44.5982V30.7388C35.8166 29.5331 35.3371 28.3771 34.4845 27.5245C33.6319 26.6719 32.4759 26.1924 31.2701 26.1913L7.44944 26.1696Z" fill="#535354"/>
<path d="M3.9668 26.8799L19.3593 37.6468L34.414 26.594" fill="#FEDB8F"/>
<path d="M19.3589 38.2965C19.2258 38.2964 19.0958 38.2556 18.9865 38.1796L3.59396 27.4126C3.45267 27.3138 3.35641 27.163 3.32636 26.9932C3.29631 26.8235 3.33492 26.6487 3.43371 26.5074C3.53249 26.3661 3.68336 26.2699 3.85311 26.2398C4.02287 26.2098 4.19761 26.2484 4.33889 26.3472L19.3503 36.8499L34.0282 26.07C34.0967 26.0161 34.1754 25.9766 34.2596 25.9538C34.3438 25.931 34.4316 25.9253 34.518 25.9372C34.6044 25.9491 34.6875 25.9783 34.7624 26.0229C34.8373 26.0676 34.9024 26.1269 34.9539 26.1973C35.0054 26.2677 35.0422 26.3477 35.0621 26.4326C35.0819 26.5175 35.0845 26.6055 35.0697 26.6915C35.0548 26.7774 35.0228 26.8594 34.9756 26.9327C34.9284 27.006 34.8669 27.0691 34.7947 27.1181L19.7444 38.1709C19.6326 38.2528 19.4975 38.2968 19.3589 38.2965Z" fill="#535354"/>
<path d="M32.9239 27.6681V16.5114C32.9239 15.133 32.3764 13.8111 31.4017 12.8364C30.427 11.8617 29.1051 11.3141 27.7267 11.3141H10.3506C8.97217 11.3141 7.65023 11.8617 6.67556 12.8364C5.70089 13.8111 5.15332 15.133 5.15332 16.5114V27.6681L19.3591 37.6295L32.9239 27.6681Z" fill="white"/>
<path d="M19.3592 38.2965C19.2261 38.2964 19.0961 38.2556 18.9868 38.1796L4.7723 28.2009C4.68716 28.1404 4.61763 28.0606 4.56943 27.9679C4.52123 27.8753 4.49576 27.7726 4.49512 27.6681V16.5114C4.49741 14.9614 5.11416 13.4755 6.21017 12.3795C7.30618 11.2835 8.79203 10.6668 10.342 10.6645H27.7268C29.2768 10.6668 30.7626 11.2835 31.8587 12.3795C32.9547 13.4755 33.5714 14.9614 33.5737 16.5114V27.6681C33.5729 27.7699 33.5486 27.8701 33.5028 27.961C33.457 28.0519 33.3908 28.131 33.3095 28.1922L19.762 38.1536C19.6477 38.2453 19.5058 38.2957 19.3592 38.2965ZM5.80309 27.3303L19.3506 36.8586L32.2571 27.352V16.5244C32.2594 15.3194 31.7838 14.1626 30.9346 13.3077C30.0853 12.4528 28.9318 11.9695 27.7268 11.9638H10.3507C9.14494 11.9649 7.98891 12.4444 7.13632 13.297C6.28373 14.1496 5.80424 15.3056 5.80309 16.5114V27.3303Z" fill="#535354"/>
<path d="M19.5368 43.2426C19.4037 43.2424 19.2737 43.2016 19.1644 43.1256L11.5764 37.7941C11.5064 37.7452 11.4468 37.683 11.4009 37.611C11.355 37.5391 11.3237 37.4588 11.3088 37.3747C11.2939 37.2906 11.2957 37.2045 11.3141 37.1211C11.3326 37.0378 11.3672 36.9589 11.4161 36.8889C11.465 36.819 11.5273 36.7593 11.5992 36.7134C11.6712 36.6675 11.7515 36.6362 11.8355 36.6213C11.9196 36.6064 12.0057 36.6083 12.0891 36.6267C12.1724 36.6451 12.2514 36.6798 12.3213 36.7287L19.5282 41.7917L26.3885 36.7373C26.4573 36.6867 26.5355 36.6501 26.6184 36.6297C26.7014 36.6093 26.7875 36.6054 26.872 36.6183C26.9564 36.6311 27.0375 36.6605 27.1106 36.7047C27.1837 36.7489 27.2474 36.8071 27.298 36.8759C27.3487 36.9447 27.3852 37.0229 27.4057 37.1058C27.4261 37.1888 27.43 37.2749 27.4171 37.3594C27.4042 37.4438 27.3749 37.5249 27.3307 37.598C27.2864 37.6711 27.2283 37.7348 27.1594 37.7854L19.9309 43.117C19.8163 43.1998 19.6782 43.2438 19.5368 43.2426Z" fill="#535354"/>
<path d="M29.2476 19.11H15.5139C15.3416 19.11 15.1764 19.0416 15.0545 18.9197C14.9327 18.7979 14.8643 18.6327 14.8643 18.4604C14.8643 18.2881 14.9327 18.1228 15.0545 18.001C15.1764 17.8791 15.3416 17.8107 15.5139 17.8107H29.2476C29.4199 17.8107 29.5852 17.8791 29.707 18.001C29.8288 18.1228 29.8973 18.2881 29.8973 18.4604C29.8973 18.6327 29.8288 18.7979 29.707 18.9197C29.5852 19.0416 29.4199 19.11 29.2476 19.11Z" fill="#535354"/>
<path d="M12.1655 18H10.8662C10.3878 18 10 18.3878 10 18.8662V20.1655C10 20.6439 10.3878 21.0317 10.8662 21.0317H12.1655C12.6439 21.0317 13.0317 20.6439 13.0317 20.1655V18.8662C13.0317 18.3878 12.6439 18 12.1655 18Z" fill="#FEDB8F"/>
<path d="M10.9783 20.6259H9.67895C9.27692 20.6259 8.89135 20.4662 8.60707 20.1819C8.32279 19.8976 8.16309 19.512 8.16309 19.11V17.8107C8.16309 17.4087 8.32279 17.0231 8.60707 16.7388C8.89135 16.4545 9.27692 16.2948 9.67895 16.2948H10.9783C11.3803 16.2948 11.7659 16.4545 12.0501 16.7388C12.3344 17.0231 12.4941 17.4087 12.4941 17.8107V19.11C12.4941 19.512 12.3344 19.8976 12.0501 20.1819C11.7659 20.4662 11.3803 20.6259 10.9783 20.6259ZM9.67895 17.5941C9.62186 17.5953 9.56742 17.6184 9.52705 17.6588C9.48668 17.6992 9.46351 17.7536 9.4624 17.8107V19.11C9.46351 19.1671 9.48668 19.2215 9.52705 19.2619C9.56742 19.3023 9.62186 19.3255 9.67895 19.3266H10.9783C11.0353 19.3255 11.0898 19.3023 11.1302 19.2619C11.1705 19.2215 11.1937 19.1671 11.1948 19.11V17.8107C11.1937 17.7536 11.1705 17.6992 11.1302 17.6588C11.0898 17.6184 11.0353 17.5953 10.9783 17.5941H9.67895Z" fill="#535354"/>
<path d="M29.2476 24.6754H15.5139C15.3416 24.6754 15.1764 24.6069 15.0545 24.4851C14.9327 24.3633 14.8643 24.198 14.8643 24.0257C14.8643 23.8534 14.9327 23.6882 15.0545 23.5664C15.1764 23.4445 15.3416 23.3761 15.5139 23.3761H29.2476C29.4199 23.3761 29.5852 23.4445 29.707 23.5664C29.8288 23.6882 29.8973 23.8534 29.8973 24.0257C29.8973 24.198 29.8288 24.3633 29.707 24.4851C29.5852 24.6069 29.4199 24.6754 29.2476 24.6754Z" fill="#535354"/>
<path d="M12.1655 23H10.8662C10.3878 23 10 23.3878 10 23.8662V25.1655C10 25.6439 10.3878 26.0317 10.8662 26.0317H12.1655C12.6439 26.0317 13.0317 25.6439 13.0317 25.1655V23.8662C13.0317 23.3878 12.6439 23 12.1655 23Z" fill="#FEDB8F"/>
<path d="M10.9783 26.1869H9.67895C9.27692 26.1869 8.89135 26.0272 8.60707 25.7429C8.32279 25.4587 8.16309 25.0731 8.16309 24.6711V23.3761C8.16309 22.9741 8.32279 22.5885 8.60707 22.3042C8.89135 22.0199 9.27692 21.8602 9.67895 21.8602H10.9783C11.3803 21.8602 11.7659 22.0199 12.0501 22.3042C12.3344 22.5885 12.4941 22.9741 12.4941 23.3761V24.6754C12.493 25.0767 12.3328 25.4611 12.0486 25.7445C11.7645 26.0278 11.3795 26.1869 10.9783 26.1869ZM9.67895 23.1552C9.62186 23.1563 9.56742 23.1795 9.52705 23.2199C9.48668 23.2602 9.46351 23.3147 9.4624 23.3718V24.6711C9.46351 24.7282 9.48668 24.7826 9.52705 24.823C9.56742 24.8633 9.62186 24.8865 9.67895 24.8876H10.9783C11.0353 24.8865 11.0898 24.8633 11.1302 24.823C11.1705 24.7826 11.1937 24.7282 11.1948 24.6711V23.3761C11.1937 23.319 11.1705 23.2646 11.1302 23.2242C11.0898 23.1838 11.0353 23.1606 10.9783 23.1595L9.67895 23.1552Z" fill="#535354"/>
<path d="M3.35607 11.3055C3.2323 11.3049 3.11124 11.2691 3.00697 11.2024C2.90271 11.1357 2.81951 11.0408 2.76705 10.9287C2.50286 10.357 1.74059 8.97538 0.441282 8.49897C0.296066 8.45057 0.172782 8.35213 0.0934458 8.22123C0.0141099 8.09032 -0.0161117 7.93548 0.00817826 7.78435C0.0339169 7.63101 0.113447 7.49185 0.232503 7.39185C0.351559 7.29184 0.502352 7.23752 0.657834 7.23864C1.82288 7.23864 2.87532 5.8094 2.89698 5.10344C2.87975 4.93114 2.93167 4.75905 3.04132 4.62503C3.15097 4.49102 3.30937 4.40605 3.48167 4.38882C3.65397 4.37159 3.82606 4.42351 3.96007 4.53316C4.09409 4.64281 4.17906 4.80121 4.19629 4.97351C4.46915 6.1169 5.29637 7.23864 6.34015 7.17367C6.4909 7.16044 6.6415 7.20059 6.76564 7.28713C6.88978 7.37367 6.97957 7.50108 7.01929 7.6471C7.05902 7.79312 7.04618 7.94845 6.98299 8.08596C6.91981 8.22346 6.81032 8.33439 6.67364 8.39936C5.52159 8.98405 4.26559 9.69867 4.00573 10.8031C3.97424 10.9346 3.90278 11.0531 3.80117 11.1423C3.69957 11.2314 3.57281 11.287 3.43836 11.3012L3.35607 11.3055ZM2.24299 8.07886C2.64934 8.42528 3.00764 8.82437 3.30843 9.26556C3.69516 8.76754 4.16738 8.34225 4.70302 8.00956C4.24164 7.69963 3.85302 7.29327 3.56396 6.81853C3.21719 7.32688 2.76706 7.75634 2.24299 8.07886Z" fill="#535354"/>
<path d="M10.7837 6.8142C10.6602 6.81448 10.5393 6.77959 10.435 6.71363C10.3307 6.64767 10.2473 6.55335 10.1946 6.44173C9.92611 5.87003 9.16818 4.4841 7.86454 4.01202C7.72098 3.95991 7.60037 3.8589 7.52388 3.72671C7.44739 3.59453 7.41991 3.43962 7.44628 3.28919C7.47264 3.13876 7.55116 3.00243 7.66804 2.90414C7.78492 2.80584 7.9327 2.75186 8.08542 2.75169C9.25047 2.75169 10.2986 1.31811 10.3246 0.616484C10.3325 0.461482 10.3956 0.314439 10.5026 0.20197C10.6096 0.0895002 10.7532 0.0190372 10.9076 0.00333472C11.0621 -0.0123678 11.217 0.0277278 11.3444 0.116364C11.4718 0.205 11.5633 0.33632 11.6022 0.486553C11.8794 1.62995 12.711 2.74735 13.7677 2.68672C13.9161 2.67874 14.0627 2.72185 14.1831 2.80886C14.3035 2.89587 14.3905 3.02152 14.4295 3.16488C14.4685 3.30823 14.4572 3.46062 14.3975 3.59665C14.3377 3.73267 14.2332 3.84412 14.1012 3.9124C12.9492 4.49276 11.6932 5.21171 11.4333 6.31613C11.4002 6.45221 11.3242 6.57404 11.2166 6.66371C11.109 6.75337 10.9755 6.80612 10.8356 6.8142H10.7837ZM9.67058 3.59191C10.0758 3.93786 10.434 4.33536 10.736 4.77428C11.1261 4.27902 11.5995 3.85548 12.1349 3.52261C11.6763 3.21084 11.2894 2.80479 11.0002 2.33157C10.6509 2.84083 10.1978 3.27036 9.67058 3.59191Z" fill="#535354"/>
</svg>
