<svg width="47" height="39" viewBox="0 0 47 39" fill="none" xmlns="http://www.w3.org/2000/svg">
<path d="M35.4828 8.54606L35.4463 0.794994L24.9847 0.844294L25.0213 8.59535L35.4828 8.54606Z" fill="#FCAA90"/>
<path d="M35.6169 37.2182L35.5801 29.4143L25.1185 29.4636L25.1553 37.2675L35.6169 37.2182Z" fill="#FCAA90"/>
<path d="M18.2372 38.09C13.3415 37.888 8.71258 35.8046 5.31511 32.2739C1.91763 28.7432 0.0136975 24.0377 7.36201e-05 19.1378C-0.0135503 14.238 1.86419 9.5219 5.24198 5.97238C8.61976 2.42286 13.237 0.31373 18.1315 0.0845388L35.9533 0C36.1649 0.000510335 36.3679 0.0839782 36.5187 0.232482C36.6588 0.382743 36.7347 0.581844 36.73 0.787267V8.83958C36.7307 8.94341 36.7109 9.04636 36.6716 9.14248C36.6324 9.23861 36.5745 9.32602 36.5013 9.39969C36.4281 9.47335 36.3411 9.53181 36.2453 9.57171C36.1494 9.6116 36.0466 9.63214 35.9428 9.63214L18.8606 9.71139C18.4432 9.71139 8.716 9.84877 8.716 19.1427C8.716 21.9431 9.55082 24.1834 11.194 25.7949C14.2057 28.7537 18.961 28.7009 19.0033 28.7009L36.0537 28.6217C36.1576 28.621 36.2605 28.6408 36.3566 28.6801C36.4527 28.7193 36.5402 28.7772 36.6138 28.8504C36.6875 28.9235 36.7459 29.0106 36.7858 29.1064C36.8257 29.2023 36.8463 29.3051 36.8463 29.4089V37.2129C36.847 37.3167 36.8271 37.4197 36.7879 37.5158C36.7486 37.6119 36.6907 37.6993 36.6176 37.773C36.5444 37.8467 36.4574 37.9051 36.3615 37.945C36.2656 37.9849 36.1628 38.0055 36.059 38.0055L18.2372 38.09ZM35.1449 1.5851L18.1157 1.66436C13.6243 1.87105 9.38643 3.80471 6.28683 7.06159C3.18723 10.3185 1.46553 14.6468 1.48122 19.1429C1.4969 23.6389 3.24875 27.9551 6.37099 31.1903C9.49324 34.4255 13.7445 36.3295 18.2372 36.5049H18.3164L35.351 36.4256V30.2068L19.1037 30.286C18.8923 30.286 13.6509 30.3441 10.169 26.9256C8.20876 25.0023 7.21543 22.3869 7.21543 19.1427C7.21543 8.25838 18.8395 8.12629 18.9452 8.12629L35.2295 8.05232L35.1449 1.5851Z" fill="#535354"/>
<path d="M44.7394 3.78839C44.2111 3.78839 43.6457 3.78839 43.1121 3.78839C42.2086 3.78839 41.2786 3.74084 40.3804 3.78839C40.17 3.79706 39.9646 3.72273 39.8084 3.58141C39.6523 3.44008 39.5579 3.24307 39.5456 3.03283C39.537 2.82293 39.6115 2.6181 39.7529 2.4628C39.8944 2.30749 40.0914 2.21424 40.3012 2.20329C41.2575 2.15574 42.2191 2.20329 43.1491 2.20329C44.079 2.20329 44.9825 2.25084 45.8807 2.20329C46.0909 2.19278 46.2967 2.2662 46.4527 2.4074C46.6088 2.5486 46.7024 2.74602 46.7129 2.95621C46.7234 3.16641 46.65 3.37217 46.5088 3.52824C46.3676 3.6843 46.1702 3.77788 45.96 3.78839C45.5531 3.78311 45.1463 3.78839 44.7394 3.78839Z" fill="#535354"/>
<path d="M44.7401 7.39714C44.2117 7.39714 43.6463 7.39714 43.1074 7.37072C42.2092 7.37072 41.2792 7.32846 40.381 7.37072C40.2769 7.37593 40.1729 7.36058 40.0747 7.32556C39.9766 7.29054 39.8863 7.23653 39.809 7.16661C39.7317 7.0967 39.669 7.01225 39.6243 6.91808C39.5797 6.82392 39.554 6.72188 39.5488 6.6178C39.5436 6.51372 39.559 6.40964 39.594 6.31149C39.629 6.21334 39.683 6.12305 39.753 6.04578C39.8229 5.9685 39.9073 5.90575 40.0015 5.86112C40.0956 5.81648 40.1977 5.79083 40.3018 5.78562C41.2581 5.73807 42.2197 5.78562 43.1497 5.78562C44.0796 5.78562 44.9778 5.83318 45.8813 5.78562C46.0915 5.77511 46.2973 5.84853 46.4533 5.98973C46.6094 6.13094 46.703 6.32835 46.7135 6.53855C46.724 6.74874 46.6506 6.95451 46.5094 7.11057C46.3682 7.26663 46.1708 7.36021 45.9606 7.37072C45.5537 7.39714 45.1469 7.39714 44.7401 7.39714Z" fill="#535354"/>
<path d="M44.7394 32.3625C44.2111 32.3625 43.6457 32.3625 43.1121 32.3625C42.2086 32.3625 41.2786 32.3149 40.3804 32.3625C40.17 32.3712 39.9646 32.2968 39.8084 32.1555C39.6523 32.0142 39.5579 31.8172 39.5456 31.6069C39.537 31.397 39.6115 31.1922 39.7529 31.0369C39.8944 30.8816 40.0914 30.7883 40.3012 30.7774C41.2575 30.7298 42.2191 30.7774 43.1491 30.7774C44.079 30.7774 44.9825 30.8249 45.8807 30.7774C45.9848 30.7722 46.0889 30.7875 46.187 30.8226C46.2852 30.8576 46.3755 30.9116 46.4527 30.9815C46.53 31.0514 46.5928 31.1359 46.6374 31.23C46.682 31.3242 46.7077 31.4262 46.7129 31.5303C46.7181 31.6344 46.7028 31.7385 46.6677 31.8366C46.6327 31.9348 46.5787 32.0251 46.5088 32.1023C46.4389 32.1796 46.3544 32.2424 46.2603 32.287C46.1661 32.3316 46.0641 32.3573 45.96 32.3625C45.5531 32.3572 45.1463 32.3625 44.7394 32.3625Z" fill="#535354"/>
<path d="M44.7401 35.9554C44.2117 35.9554 43.6463 35.9554 43.1127 35.9554C42.2092 35.9554 41.2792 35.9131 40.381 35.9554C40.2769 35.9606 40.1729 35.9453 40.0747 35.9102C39.9766 35.8752 39.8863 35.8212 39.809 35.7513C39.7317 35.6814 39.669 35.5969 39.6243 35.5028C39.5797 35.4086 39.554 35.3066 39.5488 35.2025C39.5436 35.0984 39.559 34.9943 39.594 34.8962C39.629 34.798 39.683 34.7077 39.753 34.6304C39.8229 34.5532 39.9073 34.4904 40.0015 34.4458C40.0956 34.4011 40.1977 34.3755 40.3018 34.3703C41.2581 34.3175 42.2197 34.3439 43.1497 34.3703C44.0796 34.3967 44.9831 34.4178 45.8813 34.3703C45.9854 34.3651 46.0895 34.3804 46.1876 34.4155C46.2858 34.4505 46.3761 34.5045 46.4533 34.5744C46.5306 34.6443 46.5934 34.7288 46.638 34.8229C46.6826 34.9171 46.7083 35.0191 46.7135 35.1232C46.7187 35.2273 46.7034 35.3314 46.6683 35.4295C46.6333 35.5277 46.5793 35.618 46.5094 35.6952C46.4395 35.7725 46.355 35.8353 46.2609 35.8799C46.1667 35.9245 46.0647 35.9502 45.9606 35.9554C45.5537 35.929 45.1469 35.9554 44.7401 35.9554Z" fill="#535354"/>
</svg>
