<svg width="44" height="46" viewBox="0 0 44 46" fill="none" xmlns="http://www.w3.org/2000/svg">
<path d="M10.3788 28.5886H4.20193C3.00579 28.5886 2.03613 29.5582 2.03613 30.7544V43.0388C2.03613 44.2349 3.00579 45.2046 4.20193 45.2046H10.3788C11.5749 45.2046 12.5446 44.2349 12.5446 43.0388V30.7544C12.5446 29.5582 11.5749 28.5886 10.3788 28.5886Z" fill="#B1D29F"/>
<path d="M26.2754 26.2798C31.658 26.2798 36.0215 21.9163 36.0215 16.5337C36.0215 11.1511 31.658 6.78762 26.2754 6.78762C20.8928 6.78762 16.5293 11.1511 16.5293 16.5337C16.5293 21.9163 20.8928 26.2798 26.2754 26.2798Z" fill="#FEDB8F"/>
<path d="M7.48149 11.4138C10.0412 11.4138 12.1163 9.33869 12.1163 6.77896C12.1163 4.21922 10.0412 2.14414 7.48149 2.14414C4.92176 2.14414 2.84668 4.21922 2.84668 6.77896C2.84668 9.33869 4.92176 11.4138 7.48149 11.4138Z" fill="#FEDB8F"/>
<path d="M8.99242 44.3556H2.81555C2.06918 44.3545 1.3537 44.0575 0.825931 43.5297C0.298163 43.0019 0.00115895 42.2864 1.33189e-05 41.5401V29.2556C-0.00112591 28.885 0.070828 28.5177 0.211759 28.1749C0.35269 27.832 0.559832 27.5203 0.821336 27.2576C1.08284 26.9949 1.39357 26.7863 1.73576 26.6438C2.07795 26.5013 2.44488 26.4277 2.81555 26.4271H8.99242C9.73879 26.4282 10.4543 26.7253 10.982 27.253C11.5098 27.7808 11.8068 28.4963 11.808 29.2426V41.5401C11.8068 42.2864 11.5098 43.0019 10.982 43.5297C10.4543 44.0575 9.73879 44.3545 8.99242 44.3556ZM2.81555 27.7266C2.61536 27.7266 2.41715 27.7662 2.23237 27.8432C2.04758 27.9202 1.87987 28.0331 1.73892 28.1752C1.59797 28.3174 1.48657 28.486 1.41115 28.6715C1.33573 28.8569 1.29778 29.0555 1.29949 29.2556V41.5401C1.29949 41.9421 1.45922 42.3278 1.74354 42.6121C2.02785 42.8964 2.41347 43.0561 2.81555 43.0561H8.99242C9.3945 43.0561 9.78012 42.8964 10.0644 42.6121C10.3487 42.3278 10.5085 41.9421 10.5085 41.5401V29.2556C10.5085 28.8536 10.3487 28.4679 10.0644 28.1836C9.78012 27.8993 9.3945 27.7396 8.99242 27.7396L2.81555 27.7266Z" fill="#535354"/>
<path d="M26.9862 45.85C26.6646 45.8496 26.3434 45.8279 26.0246 45.785C24.5735 45.5771 14.8534 42.7183 10.9377 41.2888C10.8515 41.2652 10.7712 41.224 10.7017 41.168C10.6322 41.1119 10.575 41.0421 10.5337 40.9629C10.4924 40.8837 10.4678 40.7969 10.4616 40.7078C10.4553 40.6187 10.4675 40.5293 10.4973 40.4451C10.5272 40.3609 10.5741 40.2838 10.635 40.2186C10.696 40.1534 10.7698 40.1014 10.8518 40.0659C10.9337 40.0305 11.0221 40.0123 11.1114 40.0125C11.2007 40.0128 11.289 40.0314 11.3708 40.0673C15.3862 41.5357 24.9417 44.3209 26.1936 44.4985C28.4676 44.8191 30.7331 43.6322 33.0505 42.2721L41.64 37.2561C42.018 37.0888 42.3376 36.8129 42.5583 36.4634C42.5998 36.3676 42.6148 36.2624 42.6018 36.1588C42.5889 36.0552 42.5485 35.957 42.4847 35.8743C42.2554 35.5969 41.9694 35.3718 41.6459 35.2142C41.3224 35.0566 40.9689 34.97 40.6091 34.9604C38.5603 34.8954 36.6457 35.8007 34.6185 36.7623C32.5913 37.7239 30.4688 38.7245 28.1558 38.6985C27.7143 38.6966 27.2786 38.5983 26.8791 38.4105C26.4796 38.2227 26.1259 37.95 25.8427 37.6113C25.7013 37.4136 25.6104 37.1844 25.578 36.9435C25.5455 36.7027 25.5724 36.4576 25.6564 36.2295C25.9553 35.3978 26.8043 35.0037 28.1688 35.0556L33.0678 35.2376C34.129 35.2766 35.97 35.1813 36.2948 34.081C36.4768 33.4573 36.0479 32.7816 35.5282 32.3917C34.8193 31.9625 34.0164 31.7127 33.1891 31.664C28.1731 30.9926 22.9059 31.2308 17.8119 31.4431C15.4598 31.5471 13.2377 31.6423 11.1542 31.6423C10.9819 31.6423 10.8167 31.5739 10.6948 31.452C10.573 31.3302 10.5045 31.1649 10.5045 30.9926C10.5045 30.8203 10.573 30.655 10.6948 30.5332C10.8167 30.4113 10.9819 30.3429 11.1542 30.3429C13.2117 30.3429 15.4165 30.2476 17.7556 30.1436C22.6676 29.9314 28.2337 29.7105 33.3494 30.3732C34.3843 30.4513 35.3848 30.7798 36.2645 31.3305C36.7147 31.6319 37.0758 32.0484 37.3105 32.5367C37.5451 33.025 37.6446 33.5672 37.5987 34.107C38.5785 33.796 39.6031 33.6496 40.6308 33.6739C41.1992 33.6885 41.7569 33.8313 42.2624 34.0915C42.7679 34.3518 43.2082 34.7228 43.5503 35.1769C43.728 35.4351 43.8384 35.7335 43.8717 36.0451C43.905 36.3567 43.86 36.6717 43.7409 36.9616C43.4239 37.588 42.9072 38.091 42.2725 38.391L33.7219 43.394C31.5041 44.6935 29.3123 45.85 26.9862 45.85ZM27.9392 36.3508C27.3458 36.3508 26.9559 36.4678 26.8823 36.667C26.8684 36.7008 26.8643 36.7378 26.8704 36.7738C26.8766 36.8098 26.8927 36.8433 26.9169 36.8706C27.0817 37.0376 27.278 37.1702 27.4943 37.2609C27.7107 37.3516 27.9428 37.3986 28.1774 37.399C29.5248 37.3721 30.8521 37.0668 32.0759 36.5024L28.1428 36.3551L27.9392 36.3508Z" fill="#535354"/>
<path d="M25.3744 25.4352C23.3183 25.4352 21.3083 24.8255 19.5987 23.6832C17.8892 22.5408 16.5567 20.9172 15.7699 19.0176C14.983 17.118 14.7771 15.0278 15.1783 13.0112C15.5794 10.9946 16.5695 9.14224 18.0234 7.68835C19.4773 6.23447 21.3296 5.24436 23.3462 4.84323C25.3628 4.44211 27.4531 4.64798 29.3527 5.43482C31.2523 6.22165 32.8759 7.55411 34.0182 9.2637C35.1605 10.9733 35.7702 12.9832 35.7702 15.0393C35.7702 17.7965 34.6749 20.4407 32.7253 22.3903C30.7757 24.3399 28.1315 25.4352 25.3744 25.4352ZM25.3744 5.94296C23.5753 5.94296 21.8166 6.47645 20.3207 7.47597C18.8248 8.47549 17.6589 9.89615 16.9704 11.5583C16.2819 13.2204 16.1018 15.0494 16.4528 16.8139C16.8038 18.5785 17.6701 20.1993 18.9423 21.4714C20.2144 22.7436 21.8352 23.6099 23.5998 23.9609C25.3643 24.3119 27.1932 24.1318 28.8554 23.4433C30.5175 22.7548 31.9382 21.5889 32.9377 20.093C33.9372 18.5971 34.4707 16.8384 34.4707 15.0393C34.4707 12.6268 33.5124 10.3131 31.8065 8.60722C30.1006 6.90132 27.7869 5.94296 25.3744 5.94296Z" fill="#535354"/>
<path d="M6.58381 10.5691C5.53825 10.57 4.51594 10.2606 3.64624 9.6803C2.77653 9.09996 2.09853 8.27467 1.69802 7.30887C1.2975 6.34306 1.19249 5.28016 1.39625 4.25465C1.60002 3.22915 2.10342 2.28713 2.84273 1.54781C3.58205 0.808493 4.52407 0.3051 5.54957 0.101333C6.57508 -0.102435 7.63799 0.00258178 8.60379 0.403094C9.56959 0.803606 10.3949 1.48161 10.9752 2.35132C11.5556 3.22102 11.8649 4.24333 11.864 5.28889C11.8617 6.68858 11.3047 8.0303 10.315 9.02004C9.32522 10.0098 7.98351 10.5668 6.58381 10.5691ZM6.58381 1.30381C5.79545 1.30296 5.02455 1.53595 4.36864 1.97331C3.71273 2.41068 3.20128 3.03276 2.89899 3.76086C2.59671 4.48896 2.51717 5.29036 2.67045 6.06368C2.82372 6.83699 3.20292 7.54747 3.76007 8.10522C4.31722 8.66298 5.02729 9.04295 5.80043 9.19707C6.57358 9.35118 7.37507 9.27252 8.10349 8.97103C8.83192 8.66953 9.45456 8.15876 9.89264 7.50332C10.3307 6.84789 10.5645 6.07724 10.5645 5.28889C10.5634 4.23308 10.1438 3.22078 9.39762 2.47381C8.65145 1.72683 7.63961 1.3061 6.58381 1.30381Z" fill="#535354"/>
<path d="M25.2277 19.6871C24.7243 19.6975 24.2222 19.6333 23.7376 19.4965C23.2967 19.3609 22.8852 19.1434 22.5248 18.8555C22.19 18.5972 21.9274 18.2571 21.7624 17.8679C21.7247 17.7933 21.7051 17.711 21.7051 17.6275C21.7051 17.5439 21.7247 17.4616 21.7624 17.387C21.8077 17.31 21.8705 17.2447 21.9458 17.1965C22.021 17.1484 22.1066 17.1187 22.1956 17.1098C22.2684 17.0888 22.345 17.0841 22.4199 17.0961C22.4948 17.1081 22.5661 17.1364 22.6287 17.1791C22.7635 17.2569 22.8687 17.3773 22.9276 17.5213C23.1154 17.8674 23.4236 18.1325 23.7939 18.2664C24.2612 18.4627 24.7642 18.56 25.271 18.5522C25.6064 18.5558 25.9392 18.4925 26.2499 18.366C26.54 18.2535 26.7954 18.0668 26.9906 17.8245C27.1844 17.5782 27.2856 17.2716 27.2765 16.9582C27.2749 16.5265 27.1038 16.1127 26.8001 15.806C26.354 15.4056 25.7793 15.1782 25.18 15.1649C24.606 15.1267 24.0445 14.9797 23.5254 14.7318C23.0897 14.5126 22.717 14.1862 22.4425 13.7832C22.1908 13.3967 22.0582 12.9448 22.0613 12.4837C22.0437 11.9925 22.1967 11.5103 22.4944 11.1192C22.8062 10.7321 23.2139 10.4335 23.677 10.2529C24.1975 10.0451 24.7539 9.94201 25.3143 9.94969C25.7559 9.94346 26.1953 10.0123 26.6138 10.1533C26.966 10.2833 27.2896 10.4804 27.5667 10.7337C27.8358 10.9877 28.0664 11.2795 28.2511 11.6C28.3478 11.7493 28.3962 11.9247 28.3897 12.1025C28.3821 12.1784 28.3565 12.2513 28.3151 12.3153C28.2736 12.3793 28.2176 12.4326 28.1515 12.4707C28.0864 12.5187 28.0105 12.55 27.9305 12.5621C27.8505 12.5742 27.7688 12.5666 27.6924 12.54C27.5261 12.4871 27.3865 12.3723 27.3025 12.2194C27.1291 11.8809 26.8728 11.5918 26.5575 11.3791C26.1654 11.1457 25.7139 11.0313 25.258 11.0499C24.7567 11.0223 24.2587 11.1461 23.8286 11.4051C23.6433 11.5185 23.492 11.6797 23.3907 11.8718C23.2893 12.0639 23.2415 12.2797 23.2525 12.4967C23.2527 12.7448 23.3105 12.9894 23.4214 13.2114C23.5685 13.474 23.7921 13.6855 24.0625 13.8178C24.4934 14.0231 24.9593 14.1451 25.4356 14.1773C26.2304 14.2324 26.9879 14.5354 27.6014 15.0437C27.8714 15.2846 28.0846 15.5825 28.2254 15.9158C28.3662 16.2492 28.4312 16.6097 28.4157 16.9712C28.4235 17.3902 28.3299 17.8048 28.1428 18.1797C27.9656 18.5214 27.7122 18.8178 27.4021 19.046C27.1008 19.2454 26.7706 19.3974 26.4232 19.4965C26.0364 19.6191 25.6334 19.6833 25.2277 19.6871ZM25.3013 20.835C25.1991 20.835 25.101 20.7944 25.0287 20.7221C24.9564 20.6498 24.9158 20.5517 24.9158 20.4495V9.32161C24.9138 9.2694 24.9228 9.21736 24.9422 9.16885C24.9616 9.12034 24.991 9.07646 25.0284 9.04005C25.0826 8.98389 25.1525 8.94549 25.229 8.92992C25.3054 8.91436 25.3848 8.92236 25.4566 8.95287C25.5285 8.98337 25.5893 9.03496 25.6312 9.1008C25.6731 9.16663 25.694 9.24363 25.6912 9.32161V20.4495C25.6925 20.5512 25.6535 20.6493 25.5829 20.7224C25.5465 20.7598 25.5026 20.7892 25.4541 20.8086C25.4056 20.828 25.3535 20.837 25.3013 20.835Z" fill="#535354"/>
<path d="M6.61843 7.09517C6.43059 7.09483 6.24381 7.06711 6.06398 7.01286C5.8902 6.96215 5.72722 6.87993 5.58317 6.77029C5.4541 6.67042 5.35271 6.5392 5.28862 6.38911C5.27477 6.36002 5.26758 6.32821 5.26758 6.29598C5.26758 6.26376 5.27477 6.23195 5.28862 6.20285C5.30513 6.17323 5.32812 6.14771 5.35587 6.12821C5.38363 6.10871 5.41542 6.09573 5.44889 6.09023C5.47621 6.08341 5.50468 6.08259 5.53235 6.08782C5.56002 6.09306 5.58622 6.10422 5.60916 6.12055C5.66076 6.15059 5.70166 6.19604 5.72612 6.2505C5.79886 6.38579 5.91927 6.48922 6.06398 6.54072C6.24407 6.61953 6.43923 6.65797 6.63575 6.65334C6.7666 6.65611 6.89653 6.63101 7.01693 6.5797C7.1297 6.53606 7.22956 6.46453 7.30715 6.37179C7.3811 6.27501 7.41936 6.15566 7.41544 6.03392C7.41107 5.87102 7.34441 5.716 7.22918 5.60076C7.0604 5.45069 6.84418 5.36482 6.61843 5.35819C6.39513 5.33875 6.17757 5.27701 5.97735 5.17627C5.80263 5.09448 5.65305 4.96734 5.54419 4.80808C5.44691 4.65544 5.39577 4.47795 5.39691 4.29695C5.39049 4.10587 5.45187 3.91868 5.57018 3.76849C5.69119 3.61677 5.84935 3.4989 6.02933 3.4263C6.23211 3.34684 6.44829 3.30713 6.66607 3.30935C6.83969 3.30544 7.01265 3.33182 7.1772 3.38731C7.31416 3.43888 7.44044 3.51523 7.54972 3.61256C7.65415 3.713 7.74319 3.82831 7.81395 3.95475C7.85333 4.01192 7.87309 4.08032 7.87026 4.14968C7.86667 4.1793 7.85618 4.20767 7.83963 4.23249C7.82308 4.25732 7.80093 4.27792 7.77496 4.29262C7.74995 4.31156 7.72055 4.32387 7.6895 4.32842C7.65845 4.33296 7.62676 4.32959 7.59737 4.31861C7.53386 4.29778 7.48003 4.2547 7.44576 4.19732C7.3806 4.06334 7.2803 3.94956 7.15554 3.86812C7.00529 3.7782 6.83245 3.73311 6.65741 3.73817C6.46177 3.73038 6.26795 3.77846 6.09863 3.87678C6.02631 3.9225 5.96764 3.98685 5.92876 4.06306C5.88989 4.13928 5.87226 4.22456 5.87772 4.30994C5.87707 4.4062 5.89934 4.50123 5.9427 4.58717C5.9991 4.69118 6.08707 4.7746 6.19393 4.82541C6.36154 4.90383 6.54213 4.95081 6.72672 4.96402C7.04402 4.97828 7.34809 5.09534 7.59304 5.29755C7.69849 5.39081 7.78166 5.50656 7.83639 5.63626C7.89112 5.76596 7.91602 5.9063 7.90924 6.04692C7.90806 6.20528 7.86947 6.36112 7.79662 6.50174C7.72543 6.634 7.62642 6.74927 7.5064 6.8396C7.3834 6.92936 7.24558 6.9968 7.09923 7.03885C6.943 7.08318 6.78067 7.10219 6.61843 7.09517ZM6.64875 7.52833C6.62867 7.52892 6.60869 7.52541 6.59003 7.51801C6.57136 7.5106 6.55441 7.49945 6.54021 7.48525C6.52601 7.47106 6.51487 7.4541 6.50746 7.43544C6.50005 7.41677 6.49654 7.39679 6.49714 7.37672V3.04512C6.49703 3.00478 6.51255 2.96596 6.54046 2.93683C6.57048 2.91087 6.60907 2.89698 6.64875 2.89784C6.68856 2.8961 6.72747 2.9101 6.75704 2.93683C6.77169 2.95065 6.78316 2.96749 6.79064 2.98619C6.79812 3.0049 6.80143 3.025 6.80035 3.04512V7.37672C6.80115 7.3968 6.79771 7.41682 6.79024 7.43548C6.78278 7.45414 6.77146 7.47102 6.75704 7.48501C6.7437 7.50119 6.72724 7.51452 6.70863 7.5242C6.69002 7.53387 6.66966 7.5397 6.64875 7.54132V7.52833Z" fill="#535354"/>
</svg>
