<svg width="34" height="48" viewBox="0 0 34 48" fill="none" xmlns="http://www.w3.org/2000/svg">
<path d="M27.7104 2.28242H9.62172C6.99101 2.28242 4.8584 4.41504 4.8584 7.04575V42.5047C4.8584 45.1354 6.99101 47.268 9.62172 47.268H27.7104C30.3412 47.268 32.4738 45.1354 32.4738 42.5047V7.04575C32.4738 4.41504 30.3412 2.28242 27.7104 2.28242Z" fill="#B1D29F"/>
<path d="M26.1193 46.1764H8.03452C6.61362 46.1754 5.25121 45.6105 4.24648 44.6058C3.24175 43.601 2.67683 42.2386 2.67578 40.8177V5.35874C2.67788 3.93816 3.24314 2.57636 4.24764 1.57186C5.25214 0.567354 6.61394 0.0020999 8.03452 0L26.1193 0C27.5402 0.00105135 28.9026 0.565969 29.9073 1.5707C30.912 2.57543 31.477 3.93784 31.478 5.35874V40.8177C31.477 42.2386 30.912 43.601 29.9073 44.6058C28.9026 45.6105 27.5402 46.1754 26.1193 46.1764ZM8.03452 1.19083C6.92944 1.19188 5.86993 1.63134 5.08853 2.41274C4.30712 3.19415 3.86766 4.25366 3.86661 5.35874V40.8177C3.86766 41.9228 4.30712 42.9823 5.08853 43.7637C5.86993 44.5451 6.92944 44.9846 8.03452 44.9856H26.1193C27.2243 44.9846 28.2839 44.5451 29.0653 43.7637C29.8467 42.9823 30.2861 41.9228 30.2872 40.8177V5.35874C30.2861 4.25366 29.8467 3.19415 29.0653 2.41274C28.2839 1.63134 27.2243 1.19188 26.1193 1.19083H8.03452Z" fill="#535354"/>
<path d="M32.0734 32.8352C31.5999 32.8341 31.1462 32.6456 30.8114 32.3108C30.4767 31.9761 30.2882 31.5223 30.2871 31.0489V13.6191C30.2871 13.3846 30.3333 13.1523 30.4231 12.9356C30.5128 12.7188 30.6444 12.5219 30.8103 12.3561C30.9762 12.1902 31.1731 12.0586 31.3898 11.9689C31.6065 11.8791 31.8388 11.8329 32.0734 11.8329C32.3079 11.8329 32.5402 11.8791 32.7569 11.9689C32.9736 12.0586 33.1706 12.1902 33.3364 12.3561C33.5023 12.5219 33.6339 12.7188 33.7236 12.9356C33.8134 13.1523 33.8596 13.3846 33.8596 13.6191V31.0489C33.8596 31.5227 33.6714 31.977 33.3364 32.312C33.0014 32.647 32.5471 32.8352 32.0734 32.8352ZM32.0734 13.0237C31.9158 13.0248 31.7649 13.0878 31.6535 13.1993C31.542 13.3107 31.479 13.4615 31.4779 13.6191V31.0489C31.4779 31.2068 31.5407 31.3583 31.6523 31.4699C31.764 31.5816 31.9154 31.6443 32.0734 31.6443C32.2313 31.6443 32.3827 31.5816 32.4944 31.4699C32.606 31.3583 32.6688 31.2068 32.6688 31.0489V13.6191C32.6688 13.4612 32.606 13.3098 32.4944 13.1981C32.3827 13.0864 32.2313 13.0237 32.0734 13.0237Z" fill="#535354"/>
<path d="M5.87477 10.1935H0.595415C0.437501 10.1935 0.286055 10.1308 0.174393 10.0191C0.0627311 9.90746 0 9.75601 0 9.5981C0 9.44018 0.0627311 9.28873 0.174393 9.17707C0.286055 9.06541 0.437501 9.00268 0.595415 9.00268H5.87477C5.95296 9.00268 6.03038 9.01808 6.10262 9.048C6.17486 9.07793 6.2405 9.12178 6.29579 9.17707C6.35108 9.23236 6.39494 9.298 6.42486 9.37024C6.45478 9.44248 6.47018 9.5199 6.47018 9.5981C6.47018 9.67629 6.45478 9.75371 6.42486 9.82595C6.39494 9.89819 6.35108 9.96383 6.29579 10.0191C6.2405 10.0744 6.17486 10.1183 6.10262 10.1482C6.03038 10.1781 5.95296 10.1935 5.87477 10.1935Z" fill="#535354"/>
<path d="M5.87477 13.377H0.595415C0.437501 13.377 0.286055 13.3143 0.174393 13.2026C0.0627311 13.0909 0 12.9395 0 12.7816C0 12.6237 0.0627311 12.4722 0.174393 12.3606C0.286055 12.2489 0.437501 12.1862 0.595415 12.1862H5.87477C6.03268 12.1862 6.18413 12.2489 6.29579 12.3606C6.40745 12.4722 6.47018 12.6237 6.47018 12.7816C6.47018 12.9395 6.40745 13.0909 6.29579 13.2026C6.18413 13.3143 6.03268 13.377 5.87477 13.377Z" fill="#535354"/>
<path d="M5.87477 16.5605H0.595415C0.437501 16.5605 0.286055 16.4978 0.174393 16.3861C0.0627311 16.2744 0 16.123 0 15.9651C0 15.8072 0.0627311 15.6557 0.174393 15.544C0.286055 15.4324 0.437501 15.3697 0.595415 15.3697H5.87477C6.03268 15.3697 6.18413 15.4324 6.29579 15.544C6.40745 15.6557 6.47018 15.8072 6.47018 15.9651C6.47018 16.123 6.40745 16.2744 6.29579 16.3861C6.18413 16.4978 6.03268 16.5605 5.87477 16.5605Z" fill="#535354"/>
<path d="M5.87477 19.744H0.595415C0.437501 19.744 0.286055 19.6812 0.174393 19.5696C0.0627311 19.4579 0 19.3065 0 19.1486C0 18.9906 0.0627311 18.8392 0.174393 18.7275C0.286055 18.6159 0.437501 18.5531 0.595415 18.5531H5.87477C5.95296 18.5531 6.03038 18.5685 6.10262 18.5985C6.17486 18.6284 6.2405 18.6722 6.29579 18.7275C6.35108 18.7828 6.39494 18.8485 6.42486 18.9207C6.45478 18.9929 6.47018 19.0704 6.47018 19.1486C6.47018 19.2268 6.45478 19.3042 6.42486 19.3764C6.39494 19.4487 6.35108 19.5143 6.29579 19.5696C6.2405 19.6249 6.17486 19.6687 6.10262 19.6987C6.03038 19.7286 5.95296 19.744 5.87477 19.744Z" fill="#535354"/>
<path d="M5.87477 22.9314H0.595415C0.437501 22.9314 0.286055 22.8687 0.174393 22.757C0.0627311 22.6454 0 22.4939 0 22.336C0 22.1781 0.0627311 22.0267 0.174393 21.915C0.286055 21.8033 0.437501 21.7406 0.595415 21.7406H5.87477C6.03268 21.7406 6.18413 21.8033 6.29579 21.915C6.40745 22.0267 6.47018 22.1781 6.47018 22.336C6.47018 22.4939 6.40745 22.6454 6.29579 22.757C6.18413 22.8687 6.03268 22.9314 5.87477 22.9314Z" fill="#535354"/>
<path d="M5.87477 26.1149H0.595415C0.437501 26.1149 0.286055 26.0522 0.174393 25.9405C0.0627311 25.8289 0 25.6774 0 25.5195C0 25.3616 0.0627311 25.2101 0.174393 25.0985C0.286055 24.9868 0.437501 24.9241 0.595415 24.9241H5.87477C6.03268 24.9241 6.18413 24.9868 6.29579 25.0985C6.40745 25.2101 6.47018 25.3616 6.47018 25.5195C6.47018 25.6774 6.40745 25.8289 6.29579 25.9405C6.18413 26.0522 6.03268 26.1149 5.87477 26.1149Z" fill="#535354"/>
<path d="M5.87477 29.2984H0.595415C0.437501 29.2984 0.286055 29.2357 0.174393 29.124C0.0627311 29.0124 0 28.8609 0 28.703C0 28.5451 0.0627311 28.3936 0.174393 28.282C0.286055 28.1703 0.437501 28.1076 0.595415 28.1076H5.87477C6.03268 28.1076 6.18413 28.1703 6.29579 28.282C6.40745 28.3936 6.47018 28.5451 6.47018 28.703C6.47018 28.8609 6.40745 29.0124 6.29579 29.124C6.18413 29.2357 6.03268 29.2984 5.87477 29.2984Z" fill="#535354"/>
<path d="M5.87477 32.4819H0.595415C0.437501 32.4819 0.286055 32.4192 0.174393 32.3075C0.0627311 32.1958 0 32.0444 0 31.8865C0 31.7286 0.0627311 31.5771 0.174393 31.4655C0.286055 31.3538 0.437501 31.2911 0.595415 31.2911H5.87477C6.03268 31.2911 6.18413 31.3538 6.29579 31.4655C6.40745 31.5771 6.47018 31.7286 6.47018 31.8865C6.47018 32.0444 6.40745 32.1958 6.29579 32.3075C6.18413 32.4192 6.03268 32.4819 5.87477 32.4819Z" fill="#535354"/>
<path d="M5.87477 35.6654H0.595415C0.437501 35.6654 0.286055 35.6026 0.174393 35.491C0.0627311 35.3793 0 35.2279 0 35.07C0 34.912 0.0627311 34.7606 0.174393 34.6489C0.286055 34.5373 0.437501 34.4745 0.595415 34.4745H5.87477C6.03268 34.4745 6.18413 34.5373 6.29579 34.6489C6.40745 34.7606 6.47018 34.912 6.47018 35.07C6.47018 35.2279 6.40745 35.3793 6.29579 35.491C6.18413 35.6026 6.03268 35.6654 5.87477 35.6654Z" fill="#535354"/>
<path d="M33.2642 17.1559H30.8825C30.7246 17.1559 30.5732 17.0932 30.4615 16.9815C30.3498 16.8698 30.2871 16.7184 30.2871 16.5605C30.2871 16.4026 30.3498 16.2511 30.4615 16.1395C30.5732 16.0278 30.7246 15.9651 30.8825 15.9651H33.2642C33.4221 15.9651 33.5735 16.0278 33.6852 16.1395C33.7969 16.2511 33.8596 16.4026 33.8596 16.5605C33.8596 16.7184 33.7969 16.8698 33.6852 16.9815C33.5735 17.0932 33.4221 17.1559 33.2642 17.1559Z" fill="#535354"/>
<path d="M33.2642 20.8197H30.8825C30.7246 20.8197 30.5732 20.757 30.4615 20.6453C30.3498 20.5336 30.2871 20.3822 30.2871 20.2243C30.2871 20.0664 30.3498 19.9149 30.4615 19.8033C30.5732 19.6916 30.7246 19.6289 30.8825 19.6289H33.2642C33.4221 19.6289 33.5735 19.6916 33.6852 19.8033C33.7969 19.9149 33.8596 20.0664 33.8596 20.2243C33.8596 20.3822 33.7969 20.5336 33.6852 20.6453C33.5735 20.757 33.4221 20.8197 33.2642 20.8197Z" fill="#535354"/>
<path d="M33.2642 24.4835H30.8825C30.7246 24.4835 30.5732 24.4207 30.4615 24.3091C30.3498 24.1974 30.2871 24.046 30.2871 23.8881C30.2871 23.7301 30.3498 23.5787 30.4615 23.467C30.5732 23.3554 30.7246 23.2926 30.8825 23.2926H33.2642C33.4221 23.2926 33.5735 23.3554 33.6852 23.467C33.7969 23.5787 33.8596 23.7301 33.8596 23.8881C33.8596 24.046 33.7969 24.1974 33.6852 24.3091C33.5735 24.4207 33.4221 24.4835 33.2642 24.4835Z" fill="#535354"/>
<path d="M33.2642 28.1473H30.8825C30.7246 28.1473 30.5732 28.0845 30.4615 27.9729C30.3498 27.8612 30.2871 27.7098 30.2871 27.5519C30.2871 27.3939 30.3498 27.2425 30.4615 27.1308C30.5732 27.0192 30.7246 26.9564 30.8825 26.9564H33.2642C33.4221 26.9564 33.5735 27.0192 33.6852 27.1308C33.7969 27.2425 33.8596 27.3939 33.8596 27.5519C33.8596 27.7098 33.7969 27.8612 33.6852 27.9729C33.5735 28.0845 33.4221 28.1473 33.2642 28.1473Z" fill="#535354"/>
<path d="M22.999 31.8428C22.999 27.0795 21.2803 23.2411 17.0766 23.2411C12.9683 23.2411 11.1582 27.0914 11.1582 31.8428H22.999Z" fill="white"/>
<path d="M24.3147 32H10.6853C10.5036 32 10.3293 31.9423 10.2007 31.8397C10.0722 31.7371 10 31.5979 10 31.4528C10 26.1593 12.8008 23 17.4977 23C22.1946 23 25 26.1593 25 31.4528C25 31.5979 24.9278 31.7371 24.7993 31.8397C24.6707 31.9423 24.4964 32 24.3147 32ZM11.3844 30.9056H23.6156C23.5105 28.4941 22.615 24.0944 17.4886 24.0944C12.3622 24.0944 11.4895 28.7677 11.3844 30.9056Z" fill="#535354"/>
<path d="M16.0768 20.784C17.7934 20.784 19.1849 19.1205 19.1849 17.0686C19.1849 15.0166 17.7934 13.3532 16.0768 13.3532C14.3603 13.3532 12.9688 15.0166 12.9688 17.0686C12.9688 19.1205 14.3603 20.784 16.0768 20.784Z" fill="white"/>
<path d="M17.0685 21.3794C15.0362 21.3794 13.377 19.4502 13.377 17.0686C13.377 14.6869 15.0362 12.7578 17.0685 12.7578C19.1009 12.7578 20.78 14.6869 20.78 17.0686C20.78 19.4502 19.1168 21.3794 17.0685 21.3794ZM17.0685 13.9486C15.6832 13.9486 14.5598 15.3498 14.5598 17.0686C14.5598 18.7873 15.6832 20.1886 17.0685 20.1886C18.4539 20.1886 19.5812 18.7873 19.5812 17.0686C19.5812 15.3498 18.4618 13.9486 17.0685 13.9486Z" fill="#535354"/>
</svg>
