<svg width="539" height="515" viewBox="0 0 539 515" fill="none" xmlns="http://www.w3.org/2000/svg">
<path d="M1 514.19C51 515.77 100.41 506.68 142.69 479.86C184.97 453.04 216.27 406.02 215.59 355.97C215.39 341.05 212.46 326.26 212.23 311.34C211.56 266.34 237.84 221.92 277.63 200.84C309.83 183.79 347.54 181.84 383.39 175.33C413.18 169.87 442.68 160.83 468.47 144.93C494.26 129.03 516.2 105.84 527 77.54C535.66 54.78 537.52 25.3 538.61 1H1V514.19Z" fill="#F7F9FC"/>
<path d="M1 446.5C47.612 460.265 97.7695 455.125 140.62 432.19C182.94 409.31 215.8 369.08 230.06 322.68C234.38 308.68 237.06 293.87 235.8 279.22C232.7 243.06 206.26 211.71 205.32 175.43C204.32 138.43 230.01 106.43 257.13 81.62C284.25 56.81 315.23 34.21 331.34 1" stroke="#EAEAEA" stroke-miterlimit="10"/>
<path d="M184.73 93C183.78 93.33 182.84 93.68 181.91 94" stroke="#535354" stroke-linecap="round" stroke-linejoin="round"/>
<path d="M176.4 96.33C148.781 108.785 127.063 131.46 115.81 159.59C109.62 175.37 107.13 193.69 114.45 208.98C120.87 222.37 133.98 231.53 147.88 236.75C160.09 241.34 175.53 242.64 184.66 233.33C192.98 224.83 192.23 210.09 185.08 200.6C177.93 191.11 165.92 186.31 154.08 185.02C148.589 184.315 143.015 184.613 137.63 185.9C121.3 190.19 110.63 205.85 104.09 221.42C97.6899 236.7 93.8799 254.42 100.35 269.64C109.35 290.95 134.54 299.34 157.04 304.72C199.04 314.77 230.42 337.85 246.77 366.72" stroke="#535354" stroke-linecap="round" stroke-linejoin="round" stroke-dasharray="5.96 5.96"/>
<path d="M248.22 369.31C248.68 370.2 249.14 371.09 249.58 371.98" stroke="#535354" stroke-linecap="round" stroke-linejoin="round"/>
<path d="M241.66 388.08C240.66 387.34 239.54 386.01 240.31 385.02C240.54 384.8 240.811 384.629 241.108 384.516C241.405 384.402 241.722 384.349 242.04 384.36C247.04 383.88 250.95 384.9 255.92 384.42C256.6 381.15 257.5 374.74 260.37 371.98C262.37 372.63 263.16 375.04 263.64 377.11C264.72 381.76 272.17 403.83 267.53 405.26C263.22 406.59 245.43 390.86 241.66 388.08Z" fill="#FEDB8F"/>
<path d="M242.77 385.36C241.77 384.62 240.65 383.28 241.42 382.3C241.648 382.081 241.918 381.909 242.213 381.796C242.509 381.683 242.824 381.63 243.14 381.64C248.14 381.16 252.05 382.18 257.03 381.7C257.71 378.43 258.6 372.02 261.48 369.26C263.48 369.91 264.27 372.31 264.75 374.39C265.82 379.04 273.27 401.11 268.64 402.54C264.32 403.87 246.52 388.14 242.77 385.36Z" stroke="#535354" stroke-linecap="round" stroke-linejoin="round"/>
<path d="M256.729 381.66C261.923 387.821 266.08 394.785 269.039 402.28L256.729 381.66Z" fill="white"/>
<path d="M256.729 381.66C261.923 387.821 266.08 394.785 269.039 402.28" stroke="#535354" stroke-linecap="round" stroke-linejoin="round"/>
</svg>
