<svg width="297" height="647" viewBox="0 0 297 647" fill="none" xmlns="http://www.w3.org/2000/svg">
<path d="M295.838 60.9976C253.448 48.8976 207.928 36.4876 164.068 40.9176C120.208 45.3476 75.4784 70.4076 61.0484 112.068C48.6384 147.898 60.7684 187.838 79.4184 220.848C97.0984 252.138 120.998 280.368 150.998 300.138C183.908 321.828 224.998 334.348 247.338 366.848C259.238 384.178 264.268 405.538 264.658 426.558C265.018 445.638 260.288 467.078 244.168 477.328C223.878 490.218 195.918 479.328 173.768 488.708C152.518 497.708 142.628 524.168 146.938 546.848C151.248 569.528 166.798 588.548 184.348 603.538C201.898 618.528 250.888 642.788 295.888 646.218L295.838 60.9976Z" fill="#F7F9FC"/>
<path d="M295.839 14.3047C263.229 -1.50534 227.379 -0.695346 191.419 3.88465C168.419 6.76465 145.339 11.5547 124.839 22.3247C104.339 33.0947 86.5288 50.4747 79.2388 72.4547C76.4888 80.7347 61.8388 156.675 101.849 209.215C124.989 239.595 159.969 258.215 194.319 274.865C228.669 291.515 271.059 317.995 295.839 347.065" stroke="#EAEAEA" stroke-miterlimit="10"/>
<path d="M26.4967 330.938C27.4067 330.498 28.4967 329.498 28.0067 328.568C27.8463 328.353 27.6441 328.171 27.4121 328.036C27.1802 327.9 26.9232 327.812 26.6567 327.778C22.5567 326.678 19.1167 326.998 15.0167 325.898C14.8967 323.068 15.0167 317.578 13.0167 314.898C11.2267 315.158 10.2467 317.068 9.56669 318.738C8.01669 322.498 -1.28331 339.908 2.40669 341.748C5.83669 343.498 22.9167 332.748 26.4967 330.938Z" fill="#FEDB8F"/>
<path d="M25.9068 328.498C26.8568 328.018 27.9668 327.058 27.4568 326.128C27.2964 325.913 27.0942 325.731 26.8623 325.596C26.6303 325.46 26.3734 325.372 26.1068 325.338C22.0068 324.238 18.5668 324.548 14.4668 323.458C14.3468 320.628 14.4668 315.128 12.4668 312.458C10.6768 312.728 9.69684 314.638 9.01684 316.298C7.49684 320.018 -1.83317 337.498 1.85683 339.318C5.28683 341.038 22.3668 330.308 25.9068 328.498Z" stroke="#535354" stroke-linecap="round" stroke-linejoin="round"/>
<path d="M14.7266 323.498C9.52188 327.932 5.07371 333.185 1.55664 339.048L14.7266 323.498Z" fill="white"/>
<path d="M14.7266 323.498C9.52188 327.932 5.07371 333.185 1.55664 339.048" stroke="#535354" stroke-linecap="round" stroke-linejoin="round"/>
<path d="M24.9365 313.028C31.5703 302.514 40.5141 293.652 51.0877 287.114C61.6614 280.576 73.5865 276.535 85.9565 275.298C94.0865 274.558 102.497 275.088 110.047 278.108C121.047 282.488 129.427 291.758 135.157 302.108C143.347 316.878 146.497 335.598 138.747 350.598C130.997 365.598 110.147 373.818 96.0665 364.498C84.2465 356.668 81.3065 339.358 87.1465 326.498C92.9865 313.638 105.727 304.858 119.197 300.428C132.947 295.848 148.497 295.308 161.497 301.698C177.877 309.748 187.697 327.698 190.287 345.698C192.877 363.698 189.287 382.118 184.837 399.818C182.177 410.398 179.177 421.048 179.167 431.958C179.157 442.868 182.567 454.318 190.797 461.488C202.077 471.318 218.797 470.698 233.047 475.228" stroke="#535354" stroke-linecap="round" stroke-linejoin="round" stroke-dasharray="6 6"/>
</svg>
